<?xml version="1.0" encoding="UTF-8"?>
<svg width="10px" height="10px" viewBox="0 0 10 10" version="1.1" xmlns="http://www.w3.org/2000/svg" xmlns:xlink="http://www.w3.org/1999/xlink">
    <!-- Generator: Sketch 52.2 (67145) - http://www.bohemiancoding.com/sketch -->
    <title>火</title>
    <desc>Created with Sketch.</desc>
    <g id="火" stroke="none" stroke-width="1" fill="none" fill-rule="evenodd">
        <g>
            <rect id="Rectangle" fill="#000000" opacity="0" x="0" y="0" width="10" height="10"></rect>
            <path d="M4.59231952,10 C4.59231952,10 0.265697391,9.49072789 2,5.13336182 C2,5.13336182 2.4309082,6.58850098 2.54516602,6.77819824 C2.54516602,6.77819824 2.45191784,5.56553321 2.99743652,4.92089844 C3.78552246,3.98962402 4.12139893,2.16442871 2.99743652,0.555664062 C2.91741943,0.500366211 7.21420279,2.13125 7.50976563,5 C7.50976563,5 8.09777707,3.26545061 8.79510498,3.17504883 C8.79510498,3.17504883 8.31265259,5.64343262 8.56173706,6.4750061 C8.62335205,6.94186401 8.9095459,8.80233765 6.19018555,10 C6.19018555,10 7.6266503,8.56776995 5.21706175,6.29064941 C5.21706175,6.29064941 5.35083008,7.63641357 4.67730713,8.5569458 C4.46801758,8.81500244 4.06488037,9.48022461 4.59231952,10 Z" id="Path" fill="#FF6567"></path>
        </g>
    </g>
</svg>